# xmcd
#
# Track frame offsets:
#	150
#	20950
#	42880
#	63473
#	85403
#	105848
#
# Disc length: 1747 seconds
# Revision: 0
# Processed by: cddbd v1.5.2PL0 Copyright (c) Steve Scherf et al.
# Submitted via: dBpowerAMP V12.0
#
DISCID=4706d106
DTITLE=The S.O.U.L. S.Y.S.T.E.M. introducing Michelle Visage - It's Gonna Be A Lovely Day
DYEAR=1992
DGENRE=House
TTITLE0=It's Gonna Be A Lovely Day [Pop Radio Edit]
TTITLE1=It's Gonna Be A Lovely Day [Radio Mix]
TTITLE2=It's Gonna Be A Lovely Day [Radio Mix II]
TTITLE3=It's Gonna Be A Lovely Day [Extended Pop Radio Edit]
TTITLE4=It's Gonna Be A Lovely Day [Master Mix]
TTITLE5=It's Gonna Be A Lovely Day [Easy Listening Sax Instrumental]
EXTD=
EXTT0=
EXTT1=
EXTT2=
EXTT3=
EXTT4=
EXTT5=
PLAYORDER=
